<svg id="svg" version="1.1" viewBox="0 0 300 300" width="300" height="300" xmlns="http://www.w3.org/2000/svg"><svg xmlns="http://www.w3.org/2000/svg"><defs><clipPath id="clip-1"><rect x="0" y="0" transform="scale(0.14648,0.14648)" width="2048" height="2048" fill="none"/></clipPath></defs><g clip-path="url(#clip-1)" fill="none" fill-rule="nonzero" stroke="none" stroke-width="1" stroke-linecap="butt" stroke-linejoin="miter" stroke-miterlimit="10" stroke-dasharray="" stroke-dashoffset="0" font-family="none" font-weight="none" font-size="none" text-anchor="none" style="mix-blend-mode: normal"><path d="M0,35.04404c0.33011,-0.88052 0.50907,-2.01504 0.70221,-2.94551c2.33584,-11.25483 12.42169,-19.35157 23.87787,-19.56136c4.45005,-0.08149 9.02886,-0.05098 13.54629,-0.05145l25.52139,0.00132l77.14761,0.00374l89.14263,0.00129l29.25293,-0.00655c7.00781,-0.0024 17.91943,-0.68429 24.25781,1.58046c6.3252,2.29603 11.46533,7.03172 14.27197,13.14744c0.88184,1.88584 1.32715,3.66592 1.73584,5.69897c0.12598,0.62695 0.34863,2.0978 0.54346,2.63013v179.02778c-0.58154,1.91895 -0.75439,3.94189 -1.39453,5.91064c-2.81396,8.65283 -11.2793,15.79248 -20.38916,16.76953c-5.49902,0.58887 -11.77734,0.34863 -17.38623,0.34424l-27.33105,-0.00146l-31.01807,0.00293l-9.45996,0.00293c-1.5835,0.00439 -3.94922,0.09375 -5.44922,-0.02051l-0.00439,0.23145c-0.03223,2.08154 0.18164,5.02734 0.43506,7.11914c0.94189,7.78564 2.19873,15.89209 6.3457,22.69922c1.71973,2.80225 4.18652,5.5415 7.36963,6.54785c3.50977,1.26709 7.62158,0.12305 9.8042,3.91846c1.85889,3.23438 0.66211,7.21436 -2.72021,8.77002c-2.12695,0.97852 -5.55469,0.74121 -7.89844,0.73389l-8.64844,-0.01904l-28.68457,0.00586l-46.55479,-0.00293l-13.60693,0.00732c-2.82759,0.01318 -5.69663,0.04688 -8.52173,0.01611c-2.12886,-0.02197 -4.3771,-0.65771 -5.83711,-2.30713c-1.05571,-1.2041 -1.58979,-2.77881 -1.48491,-4.37695c0.12334,-1.73145 0.93838,-3.3252 2.24062,-4.48682c2.11304,-1.88525 5.73179,-1.20264 8.05225,-2.10205c12.27524,-4.75195 14.15024,-25.6084 14.65474,-36.72803c-6.16406,0.13477 -12.90938,-0.01172 -19.13057,-0.01172l-39.45205,-0.00146l-19.22783,0.00586c-4.66934,0 -10.04238,0.24023 -14.62412,-0.62549c-8.95835,-1.69043 -16.74784,-8.9458 -19.10362,-17.74805c-0.28988,-1.08398 -0.57964,-3.51562 -0.97426,-4.36963zM24.92388,187.4458c7.59126,0.06738 15.18296,0.08496 22.77451,0.0542l39.24507,-0.00146l123.88711,-0.00586c21.23877,0 42.9624,-0.23877 64.16895,0.03223c-0.15381,-1.96436 -0.01758,-5.41553 -0.01318,-7.48682l0.00586,-14.32764v-46.66729v-54.44077l-0.00732,-17.42725c-0.00439,-2.87109 -0.12451,-6.81343 0.04541,-9.58726l-176.78042,-0.04321l-50.78833,0.00264l-15.16992,0.00762c-1.67168,0.00146 -5.81997,0.12598 -7.26328,-0.04453c-0.15835,4.19561 -0.03223,9.06621 -0.03193,13.30796l-0.00044,24.73022l-0.00352,75.53394l0.0085,23.24707c0.00176,4.0166 0.14194,9.16846 -0.07705,13.11621zM150.21973,224.9751c6.87012,-0.12891 12.34131,-5.79199 12.23145,-12.66211c-0.10986,-6.87158 -5.7583,-12.35742 -12.62842,-12.26807c-6.89824,0.09082 -12.41133,5.76709 -12.30146,12.66504c0.11001,6.89795 5.80122,12.39404 12.69844,12.26514z" fill="#000000"/></g></svg></svg>